<svg xmlns="http://www.w3.org/2000/svg" xml:space="preserve" id="Layer_1" x="0" y="0" style="enable-background:new 0 0 1000 1000" version="1.1" viewBox="0 0 1000 1000"><style>.st0{fill-rule:evenodd;clip-rule:evenodd}</style><path d="M835.2 310.1v-.4l-191.8 32.1v352.1l198-32.9c9.1-1.5 15.7-9.1 15.7-18.6V328.3c0-5.5-2.2-10.6-6.6-14.2-4.3-3.7-9.4-5.1-15.3-4zM393.1 658.1l213.8 35.8v-352l-213.8-35.8zM142.9 357.2V672c0 5.5 2.2 10.6 6.6 13.9 4.4 3.7 9.5 5.1 15 4l192.2-32.1V306.1l-198.4 33.2c-8.9 1.5-15.4 9.1-15.4 17.9z" class="st0"/><path d="M854.6 145.7C764 55.2 641.9 0 500.2 0 358.4 0 240 55.2 149.8 145.7 54.8 235.9 0 361.9 0 500c0 138.1 54.8 263.7 149.8 354.3 90.6 90.6 212.3 145.7 350.4 145.7 138.1 0 263.8-55.2 354.4-145.7C945.2 763.7 1000 637.7 1000 500s-54.8-264.1-145.4-354.3zm-7 551.9-.4-.7-218.5 36.5s-2.6.4-3.7.4h-2.9l-247-41.3-204.6 34c-2.9.4-6.2.7-9.1.7-12.8 0-25.6-4.4-35.4-13.1-12.4-10.6-19.4-25.9-19.4-42V357.2c0-27 19.4-49.7 46-54.1l218.9-36.5c2.2-.4 4.4-.4 6.6 0l247 41.3 204.2-34c16.1-2.6 32.5 1.8 44.9 12.4 12.4 10.6 19.7 25.9 19.7 42.4v314.1c.1 27.4-19.2 50-46.3 54.8z" class="st0"/></svg>