<svg xmlns="http://www.w3.org/2000/svg" xml:space="preserve" style="enable-background:new 0 0 1000 1000" viewBox="0 0 1000 1000"><path d="M854.3 145.4C763.7 54.8 637.7 0 500 0 361.9 0 235.9 54.8 145.7 145.4 55.2 236 0 361.7 0 499.8S55.2 760 145.7 850.2c90.2 95 216.6 149.8 354.3 149.8 137.7 0 263.7-54.8 354.3-149.8C944.9 760 1000 641.6 1000 499.8S944.9 236 854.3 145.4zM645.4 503.8 440.8 708.4c-4 4-7.7 4-7.7 0l-47.5-43.1L547 503.8c4.4-4 4.4-8 0-8L385.7 334.3l47.5-47.5h7.7v.4l204.5 208.6c4 0 4 4 0 8z" style="fill-rule:evenodd;clip-rule:evenodd"/></svg>