<svg xmlns="http://www.w3.org/2000/svg" xml:space="preserve" style="enable-background:new 0 0 1000 1000" viewBox="0 0 1000 1000"><path d="M996.9 307.6c-2.3-49.5-10.8-83.6-23.1-113.4-12.7-30.5-30-56.7-57.7-82.6-27.7-25.8-55.8-42-88.5-53.8-31.9-11.5-68.1-19.4-121.5-21.5-53.5-2.2-70.4-2.9-206.2-2.9-135.8 0-152.7.7-206.2 2.9-53.1 2.2-89.6 10-121.5 21.5-33.1 11.8-60.8 28-88.5 53.8s-45 52.1-57.7 82.6C13.8 223.9 5.4 257.7 3.1 307.6.8 357.5 0 373.3 0 500s.4 142.5 3.1 192.4c2.3 49.5 10.8 83.6 23.1 113.4 12.7 30.5 30 56.7 57.7 82.6 27.7 25.8 55.8 42 88.5 53.8 31.9 11.5 68.1 19.4 121.5 21.5 53.5 2.2 70.4 2.9 206.2 2.9 135.8 0 152.7-.4 206.2-2.9 53.1-2.2 89.6-10 121.5-21.5 33.1-11.8 60.8-28 88.5-53.8 27.7-25.8 45-52.1 57.7-82.6 12.3-29.8 20.8-63.5 23.1-113.4 2.3-49.9 3.1-65.7 3.1-192.4-.2-126.7-.6-142.5-3.3-192.4zm-90.4 380.5c-2.3 45.6-10.4 70.4-17.3 86.5-9.2 21.9-20 37.3-37.3 53.8-17.3 16.5-34.2 26.6-57.3 34.8-17.7 6.5-44.2 14-92.7 16.2-52.7 2.2-68.5 2.9-201.9 2.9-133.5 0-149.2-.4-201.9-2.9-48.8-2.2-75.4-9.7-92.7-16.2-23.5-8.6-40-18.7-57.7-34.8-17.3-16.5-28.5-31.9-37.3-53.8-6.9-16.5-15-41.3-17.3-86.5-2.3-49.2-3.1-63.9-3.1-188.5s.4-139.3 3.1-188.5c2.3-45.6 10.4-70.4 17.3-86.5 9.2-21.9 20-37.3 37.3-53.5 17.7-16.5 34.2-26.6 57.7-34.8 17.7-6.5 44.2-14 92.7-16.2 52.7-2.2 68.5-2.9 201.9-2.9 133.5 0 149.2.4 201.9 2.9 48.8 2.2 75.4 9.7 92.7 16.2 23.5 8.6 40 18.7 57.3 34.8 17.7 16.5 28.5 31.9 37.3 53.5 6.9 16.5 15 41.3 17.3 86.5 2.3 49.2 3.1 63.9 3.1 188.5s-.4 139.3-3.1 188.5z"/><path d="M500 260.6c-141.9 0-256.9 107.3-256.9 239.8s115 239.8 256.9 239.8c141.9 0 256.9-107.3 256.9-239.8S641.9 260.6 500 260.6zm0 395.2c-91.9 0-166.5-69.6-166.5-155.4S408.1 344.9 500 344.9s166.5 69.6 166.5 155.4S591.9 655.8 500 655.8zM766.9 194.9c-33.1 0-60 25.1-60 56s26.9 56 60 56 60-25.1 60-56-26.9-56-60-56z"/></svg>