<svg xmlns="http://www.w3.org/2000/svg" xml:space="preserve" style="enable-background:new 0 0 1000 1000" viewBox="0 0 1000 1000"><path d="M925.9 207.7H74.1C33.2 207.7 0 161.2 0 103.9 0 46.5 33.2 0 74.1 0h851.8c40.9 0 74.1 46.5 74.1 103.9 0 57.3-33.2 103.8-74.1 103.8zM925.9 603.9H74.1C33.2 603.9 0 557.4 0 500c0-57.4 33.2-103.9 74.1-103.9h851.8c40.9 0 74.1 46.5 74.1 103.9 0 57.4-33.2 103.9-74.1 103.9zM925.9 1000H74.1C33.2 1000 0 953.5 0 896.1c0-57.4 33.2-103.9 74.1-103.9h851.8c40.9 0 74.1 46.5 74.1 103.9 0 57.4-33.2 103.9-74.1 103.9z"/></svg>