<svg xmlns="http://www.w3.org/2000/svg" xml:space="preserve" style="enable-background:new 0 0 1000 1000" viewBox="0 0 1000 1000"><path d="M413.5 469.3c20.9-10.5 36.6-22.4 47.5-35.5 19.1-22.8 28.8-53.5 28.8-91.2 0-37.8-9.4-68.4-28.4-94.6-31.4-43-85.2-65.1-160.8-66.2H0v621.1h279.7c31.4 0 60.9-3 87.9-8.6 26.9-5.6 50.5-16.1 70.3-31 17.6-13.1 32.2-29.5 44.1-49 18.3-29.2 27.7-62.1 27.7-99.1s-8.2-65.8-24.3-90.9c-16.2-25-40.1-43.4-71.9-55zM123 289.5h135.7c29.9 0 54.2 3.4 73.3 9.7 22.4 9.3 33.3 28.4 33.3 57.2 0 26.2-8.6 44.1-25.4 54.6-16.8 10.1-38.5 15.3-65.8 15.3H123V289.5zm214.6 394.1c-15 7.5-35.9 10.8-62.8 10.8H124.1l-.4.4V529.2h152.9c26.5 0 47.5 3.7 62.1 10.5 26.2 12 39.6 34.4 39.6 66.6.1 38-13.4 63.8-40.7 77.3zM995.7 515.3c-5.6-35.9-17.9-67.7-36.6-95-20.9-31-47.1-53.5-79.3-68-32.2-14.2-68.1-21.3-108.1-21.3-67.3 0-121.9 21.3-164.1 63.6-42.3 42.3-63.2 103.6-63.2 182.8 0 84.9 23.2 146.2 69.9 184l.4.4c46.7 37.8 100.6 56.5 161.5 56.5 74 0 131.6-22.4 172.7-66.9 26.5-28 41.1-55.7 44.5-83H870.8c-7.1 13.5-15.3 23.9-24.7 31.4-17.2 14.2-39.3 20.9-66.6 20.9-25.8 0-47.9-5.6-66.2-17.2-30.3-18.7-46-50.9-47.9-96.8h334.3c.9-39.8-.6-70.1-4-91.4zm-326.8 12.4c4.5-29.9 15-53.5 32.2-71h-.7c16.8-17.6 40.8-26.2 71.8-26.2 28.4 0 52 8.2 71.4 24.7 19.1 16.5 29.9 40.8 32.2 72.5H668.9zM629.3 217.7h270v62.8h-270z"/></svg>