<svg width="713" height="270" viewBox="0 0 713 270" fill="none" xmlns="http://www.w3.org/2000/svg">
<path d="M85 230H69.2L56.6 133.6L44 230H28.2L49.4 90H57.2C63.2 90 64.2 93.8 64.8 97.6L85 230ZM194.914 90H180.514V170.6L165.714 97.8C164.914 93.8 163.514 90 155.514 90H148.914V230H163.314V151.8L178.714 221C179.314 223.8 180.514 230 188.314 230H194.914V90ZM290.036 215.8V167.2C290.036 165.4 291.636 163.8 293.436 163.8H299.436C304.036 163.8 306.036 161.8 307.036 160C307.636 158.8 310.036 153 311.636 149.4H290.036V107.8C290.036 105.8 291.436 104.4 293.436 104.4H305.036C309.636 104.4 311.836 102.2 312.636 100.4L317.436 90H280.036C277.636 90 275.836 91.8 275.636 94V230H307.636C312.236 230 314.436 228 315.436 226.2C316.036 225 318.436 219.4 320.036 215.8H290.036ZM438.758 90H424.358L410.158 183.2L396.758 95.4C395.958 90.8 393.558 90 392.558 90H381.558L401.558 220.2C401.758 221.4 402.958 230 410.158 230H411.158H417.358L438.758 90ZM526.755 215.8V167.2C526.755 165.4 528.355 163.8 530.155 163.8H536.155C540.755 163.8 542.755 161.8 543.755 160C544.355 158.8 546.755 153 548.355 149.4H526.755V107.8C526.755 105.8 528.155 104.4 530.155 104.4H541.755C546.355 104.4 548.555 102.2 549.355 100.4L554.155 90H516.755C514.355 90 512.555 91.8 512.355 94V230H544.355C548.955 230 551.155 228 552.155 226.2C552.755 225 555.155 219.4 556.755 215.8H526.755ZM681.877 90H673.077C667.877 90 666.877 94.4 666.677 95L650.877 175.6L634.277 95.2C634.277 95.2 633.477 90 627.877 90H619.077V230H633.277V157.8L641.677 194.4C642.477 197.4 644.077 205.8 652.477 205.8H656.877L667.677 157.8V230H681.877V90Z" fill="black"/>
<path d="M182.4 32.5C184.5 31.85 184.45 29.65 184.45 29.65V19.4C184.4 16.95 182.45 15 180 15H173.5V50H180C182.45 50 184.4 48.05 184.45 45.6V35.35C184.45 35.35 184.5 33.15 182.4 32.5ZM180.85 28.8C180.85 30.4 179.95 30.85 179 30.85H177.05V18.6H179C179.95 18.6 180.85 19.1 180.85 20.4V28.8ZM180.85 44.6C180.85 45.95 179.95 46.45 179 46.45H177.05V34.15H179C179.95 34.15 180.85 34.6 180.85 36.15V44.6ZM208.53 46.45V34.3C208.53 33.85 208.93 33.45 209.38 33.45H210.88C212.03 33.45 212.53 32.95 212.78 32.5C212.93 32.2 213.53 30.75 213.93 29.85H208.53V19.45C208.53 18.95 208.88 18.6 209.38 18.6H212.28C213.43 18.6 213.98 18.05 214.18 17.6L215.38 15H206.03C205.43 15 204.98 15.45 204.93 16V50H212.93C214.08 50 214.63 49.5 214.88 49.05C215.03 48.75 215.63 47.35 216.03 46.45H208.53ZM275.991 15H261.691C261.091 15 260.591 15.5 260.591 16.1V18.55H265.641V49.25C265.641 49.5 265.791 50 266.641 50H269.191V19.4C269.241 18.95 269.591 18.55 270.091 18.55H272.891C274.041 18.55 274.591 18.05 274.791 17.6L275.991 15ZM298.832 15V30.4H295.332C294.482 30.4 294.082 30.15 294.082 29.15V15H291.932C290.832 15 290.482 15.8 290.482 16.4V50H294.082V33.95H297.982C298.432 33.95 298.782 34.3 298.832 34.75V50H302.432V16.4C302.432 15.8 302.082 15 300.982 15H298.832ZM325.962 46.45V34.3C325.962 33.85 326.362 33.45 326.812 33.45H328.312C329.462 33.45 329.962 32.95 330.212 32.5C330.362 32.2 330.962 30.75 331.362 29.85H325.962V19.45C325.962 18.95 326.312 18.6 326.812 18.6H329.712C330.862 18.6 331.412 18.05 331.612 17.6L332.812 15H323.462C322.862 15 322.412 15.45 322.362 16V50H330.362C331.512 50 332.062 49.5 332.312 49.05C332.462 48.75 333.062 47.35 333.462 46.45H325.962ZM383.223 15C382.623 15 382.173 15.5 382.173 16.05V50H384.673C385.223 50 385.723 49.55 385.723 48.95V34.8C385.723 34.3 386.123 33.95 386.623 33.95H389.023C390.173 33.95 390.673 33.4 390.923 32.95L392.123 30.35H385.723V19.45C385.723 19 386.123 18.6 386.573 18.6H390.573C391.723 18.6 392.223 18.05 392.473 17.6C392.623 17.3 393.273 15.9 393.623 15H383.223ZM422.104 15H418.504V45.25C418.504 46.3 417.654 47.15 416.604 47.15H416.054C415.004 47.15 414.204 46.3 414.204 45.25V15H411.654C411.104 15 410.654 15.45 410.604 16V45.9C410.604 48.35 412.604 50.2 415.054 50.2H417.804V50.15C420.154 50.1 422.104 48.3 422.104 45.9V15ZM453.384 15H439.084C438.484 15 437.984 15.5 437.984 16.1V18.55H443.034V49.25C443.034 49.5 443.184 50 444.034 50H446.584V19.4C446.634 18.95 446.984 18.55 447.484 18.55H450.284C451.434 18.55 451.984 18.05 452.184 17.6L453.384 15ZM479.574 15H475.974V45.25C475.974 46.3 475.124 47.15 474.074 47.15H473.524C472.474 47.15 471.674 46.3 471.674 45.25V15H469.124C468.574 15 468.124 15.45 468.074 16V45.9C468.074 48.35 470.074 50.2 472.524 50.2H475.274V50.15C477.624 50.1 479.574 48.3 479.574 45.9V15ZM509.205 50V36.6C509.205 36.6 509.305 34 507.905 33.3C509.355 32.95 509.205 30.2 509.205 30.2V19.4C509.205 16.95 507.205 15 504.805 15H498.255V50H501.855V34.95H503.755C504.705 34.95 505.605 35.5 505.605 37.2V50H509.205ZM501.855 31.55V18.35H503.755C504.705 18.35 505.605 18.85 505.605 20.15V29.55C505.605 31.15 504.705 31.55 503.755 31.55H501.855ZM533.335 46.45V34.3C533.335 33.85 533.735 33.45 534.185 33.45H535.685C536.835 33.45 537.335 32.95 537.585 32.5C537.735 32.2 538.335 30.75 538.735 29.85H533.335V19.45C533.335 18.95 533.685 18.6 534.185 18.6H537.085C538.235 18.6 538.785 18.05 538.985 17.6L540.185 15H530.835C530.235 15 529.785 15.45 529.735 16V50H537.735C538.885 50 539.435 49.5 539.685 49.05C539.835 48.75 540.435 47.35 540.835 46.45H533.335Z" fill="black"/>
<path d="M199.992 263.256C201.192 263.256 202.288 263.064 203.28 262.68C204.272 262.28 205.12 261.736 205.824 261.048C206.544 260.36 207.096 259.552 207.48 258.624C207.864 257.696 208.056 256.704 208.056 255.648V255.6C208.056 254.544 207.856 253.552 207.456 252.624C207.072 251.68 206.528 250.864 205.824 250.176C205.12 249.488 204.272 248.944 203.28 248.544C202.288 248.144 201.184 247.944 199.968 247.944H195.312V263.256H199.992ZM194.496 247.2H199.968C201.28 247.2 202.48 247.416 203.568 247.848C204.672 248.28 205.616 248.872 206.4 249.624C207.2 250.376 207.816 251.264 208.248 252.288C208.68 253.296 208.896 254.392 208.896 255.576V255.624C208.896 256.808 208.68 257.912 208.248 258.936C207.816 259.944 207.2 260.824 206.4 261.576C205.616 262.328 204.672 262.92 203.568 263.352C202.48 263.784 201.28 264 199.968 264H194.496V247.2ZM225.32 247.2H226.136V264H225.32V247.2ZM250.901 264.288C249.573 264.288 248.389 264.064 247.349 263.616C246.325 263.152 245.453 262.528 244.733 261.744C244.029 260.944 243.485 260.024 243.101 258.984C242.733 257.944 242.549 256.832 242.549 255.648V255.6C242.549 254.48 242.741 253.4 243.125 252.36C243.525 251.304 244.085 250.376 244.805 249.576C245.525 248.76 246.397 248.112 247.421 247.632C248.445 247.152 249.589 246.912 250.853 246.912C251.509 246.912 252.109 246.96 252.653 247.056C253.197 247.152 253.709 247.296 254.189 247.488C254.669 247.664 255.117 247.888 255.533 248.16C255.965 248.432 256.389 248.744 256.805 249.096L256.277 249.72C255.909 249.416 255.533 249.136 255.149 248.88C254.765 248.624 254.349 248.408 253.901 248.232C253.469 248.056 252.997 247.92 252.485 247.824C251.989 247.712 251.429 247.656 250.805 247.656C249.685 247.656 248.669 247.88 247.757 248.328C246.845 248.76 246.061 249.344 245.405 250.08C244.765 250.8 244.269 251.64 243.917 252.6C243.565 253.56 243.389 254.552 243.389 255.576V255.624C243.389 256.712 243.557 257.736 243.893 258.696C244.245 259.656 244.741 260.496 245.381 261.216C246.037 261.936 246.829 262.512 247.757 262.944C248.685 263.36 249.741 263.568 250.925 263.568C251.517 263.568 252.085 263.512 252.629 263.4C253.173 263.272 253.685 263.112 254.165 262.92C254.661 262.712 255.117 262.48 255.533 262.224C255.949 261.968 256.325 261.696 256.661 261.408V256.248H250.685V255.456H257.453V261.72C256.669 262.44 255.717 263.048 254.597 263.544C253.493 264.04 252.261 264.288 250.901 264.288ZM274.211 247.2H275.027V264H274.211V247.2ZM296.576 247.944H290.6V247.2H303.392V247.944H297.392V264H296.576V247.944ZM330.425 258.36L325.577 248.04L320.753 258.36H330.425ZM325.217 247.08H325.985L333.953 264H333.065L330.785 259.104H320.393L318.089 264H317.249L325.217 247.08ZM349.418 247.2H350.234V263.256H360.362V264H349.418V247.2ZM394.676 247.2H395.444L402.548 257.424L409.628 247.2H410.396V264H409.58V248.616L402.548 258.696H402.5L395.468 248.616V264H394.676V247.2ZM427.394 247.2H439.226V247.944H428.21V255.168H438.17V255.912H428.21V263.256H439.346V264H427.394V247.2ZM460.851 263.256C462.051 263.256 463.147 263.064 464.139 262.68C465.131 262.28 465.979 261.736 466.683 261.048C467.403 260.36 467.955 259.552 468.339 258.624C468.723 257.696 468.915 256.704 468.915 255.648V255.6C468.915 254.544 468.715 253.552 468.315 252.624C467.931 251.68 467.387 250.864 466.683 250.176C465.979 249.488 465.131 248.944 464.139 248.544C463.147 248.144 462.043 247.944 460.827 247.944H456.171V263.256H460.851ZM455.355 247.2H460.827C462.139 247.2 463.339 247.416 464.427 247.848C465.531 248.28 466.475 248.872 467.259 249.624C468.059 250.376 468.675 251.264 469.107 252.288C469.539 253.296 469.755 254.392 469.755 255.576V255.624C469.755 256.808 469.539 257.912 469.107 258.936C468.675 259.944 468.059 260.824 467.259 261.576C466.475 262.328 465.531 262.92 464.427 263.352C463.339 263.784 462.139 264 460.827 264H455.355V247.2ZM486.18 247.2H486.996V264H486.18V247.2ZM515.792 258.36L510.944 248.04L506.12 258.36H515.792ZM510.584 247.08H511.352L519.32 264H518.432L516.152 259.104H505.76L503.456 264H502.616L510.584 247.08Z" fill="black"/>
</svg>
