<svg xmlns="http://www.w3.org/2000/svg" xml:space="preserve" id="Layer_1" x="0" y="0" style="enable-background:new 0 0 1000 1000" version="1.1" viewBox="0 0 1000 1000"><style>.st0{fill-rule:evenodd;clip-rule:evenodd;fill:#14181f}</style><path d="M315 291.5c0-147.9 119.9-267.8 267.8-267.8s267.8 119.9 267.8 267.8-120 267.7-267.8 267.7S315 439.3 315 291.5zM582.8 61c-127.3 0-230.4 103.2-230.4 230.4 0 127.3 103.2 230.4 230.4 230.4s230.4-103.2 230.4-230.4S710 61 582.8 61z" class="st0"/><path d="M961.4 920.4H447.6c.4 6.2.7 12.4.7 18.7s-.2 12.5-.7 18.7h533.7c10.3 0 18.7-8.4 18.7-18.7 0-77.6-50.2-144.9-125.5-192-75.5-47.2-178.7-75.8-291.7-75.8-92.6 0-178.5 19.2-248.1 52.1 11.5 7.9 22.4 16.8 32.5 26.4 61.1-25.8 135.2-41.1 215.6-41.1 107.1 0 203.2 27.2 271.9 70.1 61.8 38.6 99.5 88.5 106.7 141.6z" style="fill:#14181f"/><path d="M411.8 928.8c0 26.4-21.8 49.6-50 47.3C169 961 15.3 807.3.1 614.6c-2.2-28.3 20.9-50 47.3-50h103.5c14.6 0 25.8 11.7 26.3 25.6.8 25.4 6 49.6 14.8 72 2.7 6.9 1.1 14.8-4.2 20l-26.1 26.1c24.3 44.9 61.4 82 106.3 106.3l26.1-26.1c5.3-5.3 13.1-6.9 20-4.2 22.4 8.8 46.7 14 72.1 14.8 13.8.4 25.6 11.7 25.6 26.3v103.4zm-47.1 10.1c4.6.4 9.7-3.5 9.7-10.1v-92.9c-21.6-1.6-42.5-5.9-62.3-12.5l-27.2 27.2c-5.6 5.6-14.1 7.1-21.3 3.6-61.8-29.6-112-79.7-141.6-141.6-3.4-7.1-2-15.7 3.6-21.3l27.2-27.2c-6.7-19.8-11-40.7-12.5-62.3H47.5c-6.6 0-10.5 5.1-10.1 9.7C51.1 786 190.3 925.2 364.7 938.9z" class="st0"/></svg>