<svg xmlns="http://www.w3.org/2000/svg" xml:space="preserve" id="Layer_1" x="0" y="0" style="enable-background:new 0 0 1000 1000" version="1.1" viewBox="0 0 1000 1000"><style>.st0{fill-rule:evenodd;clip-rule:evenodd}</style><path d="M607.6 613.5v-.4c-2.6-2.2-6.6-2.2-9.1-.4l-49.7 33.1c-19.7 13.1-45.3 10.9-62.1-5.5-49-46.6-108.1-125.9-127.1-208.5-4.8-20.7 4.4-41.8 22.7-53.1l55.2-33.5c2.9-1.8 4.4-4.7 3.7-8l-16.8-96.8c-.7-4-4-6.5-8-6.5h-94.6c-4 0-7.3 2.5-8 6.5-42.7 268.1 129.3 467.5 321.5 526 3.3 1.1 7.3-.4 9.1-3.3l46.8-76c2.2-3.6 1.5-8-1.8-10.5l-81.8-63.1z" class="st0"/><path d="M854.6 145.7C764 55.2 641.9 0 500.2 0 358.4 0 240 55.2 149.8 145.7 54.8 235.9 0 362.3 0 500s54.8 263.7 149.8 354.3c90.6 90.6 212.3 145.7 350.4 145.7 138.1 0 263.8-55.2 354.4-145.7C945.2 763.7 1000 637.7 1000 500s-54.8-264.1-145.4-354.3zM727.4 709.6l-.4-.4-46.8 76.3c-9.1 15-25.6 23.7-42.4 23.7-4.7 0-9.9-.7-14.6-2.2-209.4-63.9-396.8-282-350.4-574.5 4-24.5 24.5-42 49.3-42h94.6c24.1.4 44.9 17.9 49 41.6l16.8 97.2c3.7 20.5-5.5 40.5-23.4 51.1L403.9 414c-2.9 1.8-4.4 5.1-3.7 8 17.2 73.8 72.7 147.6 115.5 188.5 2.6 2.6 6.9 2.9 9.9 1.1l49.7-33.2c17.9-12.1 41.3-11 58.1 2.2l81.8 63.5c20.3 15.9 25.4 44 12.2 65.5z" class="st0"/></svg>