<svg xmlns="http://www.w3.org/2000/svg" xml:space="preserve" style="enable-background:new 0 0 1000 1000" viewBox="0 0 1000 1000"><path d="M999.7 75.4c.2 21.6-8.6 39.4-24 54.8-34.5 34.5-68.8 69.2-103.2 103.8-85.7 86.3-171.3 172.7-257.3 258.7-6.3 6.3-5.6 9.2.3 15.1C736.1 628.7 856.3 749.9 976.7 871c21.4 21.5 28.3 46.9 19.8 75.1-8.3 27.6-28.1 45.5-57.4 51.7-28.6 6.1-53.9-1.2-74.4-21.8-43.7-43.9-87.4-87.9-131.1-131.8-76.2-76.7-152.4-153.4-228.3-230.3-6.5-6.6-8.6-1.6-12.1 1.9C374.3 735.6 255.4 855.3 136.4 975c-28 28.1-70 33-101.7 12.2C-5.2 961.1-12 907.8 21 873.7c34.4-35.5 69.5-70.3 104.3-105.4 85.9-86.5 171.8-173.1 258-259.4 6.6-6.6 7.5-10.1.2-17.4-120-120.4-239.8-241.1-359.6-361.8-31.6-31.8-31.7-78.7-.4-108 32.1-30.1 81.1-28.6 113.3 3.8 118.3 119 236.5 238 354.5 357.2 6.6 6.7 9.7 7.8 17.1.3C626.5 263.5 745 144.2 863.6 25c34.2-34.4 86.9-33.3 118 2.1 12.2 14 18.2 30.1 18.1 48.3z"/></svg>