<svg xmlns="http://www.w3.org/2000/svg" xml:space="preserve" style="enable-background:new 0 0 1000 1000" viewBox="0 0 1000 1000"><path d="M633.8 633.5c73.8-73.7 73.8-193.3 0-267-73.8-73.7-193.4-73.7-267.1 0-73.8 73.7-73.8 193.3 0 267 73.7 73.8 193.3 73.8 267.1 0z"/><path d="M854.6 145.7C764 55.1 641.9 0 500.2 0 358.4 0 240 55.1 149.8 145.7 54.8 235.9 0 361.9 0 500s54.8 263.7 149.8 354.3c90.6 90.6 212.3 145.7 350.4 145.7S764 944.9 854.6 854.3C945.2 763.7 1000 637.7 1000 500s-54.8-264.1-145.4-354.3zm-7.7 559.2c-15.3 25.2-43.5 40.5-73.1 40.5-46.8 0-85.1-38-85.1-85.1v-35.4c-40.6 61.4-110.3 101.5-188.9 101.5-125 0-226.5-101.9-226.5-226.4s101.6-226.4 226.5-226.4c78.6 0 148.3 40.2 188.9 101.5V305c0-10.6 8.4-19 19-19s19 8.4 19 19v355.7c0 25.9 21.2 47.1 47.1 47.1 16.8 0 32.5-8.4 40.9-22.3 32.9-55.9 50.4-119.8 50.4-185.2 0-201.2-163.7-365.2-365.4-365.2s-365 163.6-365 364.9 163.7 365.2 365.4 365.2c70.5 0 138.8-20.1 197.7-58.1 8.8-5.5 20.5-2.9 25.9 5.8 5.8 8.8 3.3 20.5-5.8 26.3-65 41.6-140.3 63.9-218.1 63.9-222.1 0-403-180.8-403-402.8S277.7 97.2 500.2 97.2c222.5 0 403 180.8 403 402.8 0 72.3-19.4 143.2-55.9 204.9h-.4z" style="fill-rule:evenodd;clip-rule:evenodd"/></svg>